<?xml version="1.0" encoding="utf-8"?>
<!-- Generator: Adobe Illustrator 19.0.0, SVG Export Plug-In . SVG Version: 6.00 Build 0)  -->
<svg version="1.1" id="Capa_1" xmlns="http://www.w3.org/2000/svg" xmlns:xlink="http://www.w3.org/1999/xlink" x="0px" y="0px"
	 viewBox="0 0 800 600" style="enable-background:new 0 0 800 600;" xml:space="preserve">
<style type="text/css">
	.st0{fill:#EAEAEA;stroke:#000000;stroke-miterlimit:10;}
	.st1{fill:#6F6B77;stroke:#000000;stroke-miterlimit:10;}
	.st2{fill:none;stroke:#FFFFFF;stroke-width:2;stroke-miterlimit:10;}
	.st3{fill:none;stroke:#FFFFFF;stroke-width:2;stroke-miterlimit:10;stroke-dasharray:12,12;}
	.st4{fill:#ACFCB6;}
</style>
<rect id="XMLID_1_" x="607" y="419.5" class="st0" width="130" height="67.5"/>
<rect id="XMLID_2_" x="477" y="419.5" class="st0" width="130" height="67.5"/>
<rect id="XMLID_3_" x="607" y="352" class="st0" width="130" height="67.5"/>
<rect id="XMLID_5_" x="0" y="275.3" class="st1" width="800" height="67.5"/>
<line id="XMLID_6_" class="st2" x1="0" y1="283" x2="800" y2="283"/>
<line id="XMLID_7_" class="st2" x1="0" y1="334" x2="800" y2="334"/>
<g id="XMLID_8_">
	<g id="XMLID_19_">
		<line id="XMLID_22_" class="st2" x1="0" y1="309" x2="6" y2="309"/>
		<line id="XMLID_21_" class="st3" x1="18" y1="309" x2="788" y2="309"/>
		<line id="XMLID_20_" class="st2" x1="794" y1="309" x2="800" y2="309"/>
	</g>
</g>
<rect id="XMLID_10_" x="41.9" y="419.5" class="st0" width="130" height="67.5"/>
<rect id="XMLID_9_" x="171.9" y="419.5" class="st0" width="130" height="67.5"/>
<rect id="XMLID_4_" x="41.9" y="352" class="st0" width="130" height="67.5"/>
<rect id="XMLID_11_" x="325" y="352" class="st0" width="130" height="135"/>
<rect id="XMLID_12_" x="182.9" y="346.5" class="st4" width="130" height="67.5"/>
<rect id="XMLID_13_" x="466.9" y="346.5" class="st4" width="130" height="67.5"/>
<rect id="XMLID_17_" x="41.9" y="131" transform="matrix(-1 -3.285502e-004 3.285502e-004 -1 213.8082 329.5351)" class="st0" width="130" height="67.5"/>
<rect id="XMLID_16_" x="171.9" y="131" transform="matrix(-1 -3.285502e-004 3.285502e-004 -1 473.8082 329.6633)" class="st0" width="130" height="67.5"/>
<rect id="XMLID_15_" x="41.9" y="198.5" transform="matrix(-1 -3.285502e-004 3.285502e-004 -1 213.7417 464.5351)" class="st0" width="130" height="67.5"/>
<rect id="XMLID_14_" x="182" y="204.1" class="st4" width="555" height="67.5"/>
<rect id="XMLID_23_" x="307" y="136.4" class="st4" width="430" height="67.5"/>
</svg>
